<?xml version="1.0" standalone="no"?>
<!DOCTYPE svg PUBLIC "-//W3C//DTD SVG 20010904//EN"
 "http://www.w3.org/TR/2001/REC-SVG-20010904/DTD/svg10.dtd">
<svg version="1.0" xmlns="http://www.w3.org/2000/svg"
 width="1080.000000pt" height="1080.000000pt" viewBox="0 0 1080.000000 1080.000000"
 preserveAspectRatio="xMidYMid meet" fill="hsl(120 45% 55%)">

<g transform="translate(0.000000,1080.000000) scale(0.100000,-0.100000)"
fill="hsl(120, 45%, 55%)" stroke="none">
<path d="M4905 8937 c-55 -5 -165 -23 -245 -39 -80 -16 -158 -31 -175 -34 -16
-3 -57 -14 -90 -24 -33 -9 -80 -23 -105 -30 -66 -19 -147 -46 -210 -70 -30
-12 -66 -25 -80 -29 -14 -5 -68 -28 -120 -53 -52 -25 -115 -55 -140 -66 -103
-49 -419 -240 -450 -272 -3 -3 -32 -25 -65 -50 -33 -25 -62 -47 -65 -50 -3 -3
-39 -33 -80 -67 -130 -105 -380 -359 -439 -446 -8 -12 -17 -24 -21 -27 -47
-42 -236 -320 -312 -460 -45 -84 -111 -215 -132 -262 -9 -21 -22 -53 -30 -70
-35 -80 -86 -221 -115 -318 -52 -175 -60 -202 -75 -285 -9 -44 -20 -102 -26
-130 -55 -275 -67 -677 -30 -975 12 -91 25 -181 30 -200 5 -19 16 -73 25 -120
16 -91 36 -171 65 -260 9 -30 23 -75 30 -100 44 -151 207 -506 302 -660 91
-146 192 -291 275 -394 94 -117 339 -371 438 -453 88 -73 266 -208 295 -223
14 -7 34 -21 45 -31 56 -50 491 -279 590 -309 22 -7 58 -21 80 -30 22 -10 49
-20 60 -23 11 -3 52 -16 90 -30 65 -22 98 -32 253 -72 80 -21 204 -44 385 -70
153 -23 641 -23 799 0 182 26 290 46 398 74 135 35 201 48 204 42 3 -4 14 -31
26 -60 11 -29 38 -78 59 -109 21 -32 80 -140 130 -242 132 -269 172 -331 270
-423 111 -104 209 -141 351 -135 110 6 172 25 251 79 134 91 202 221 201 389
0 112 -16 174 -72 280 -22 41 -58 111 -79 155 -142 295 -157 324 -228 423 -41
57 -47 82 -22 82 10 0 212 150 284 211 271 230 555 556 695 796 132 226 163
285 243 463 26 58 78 192 93 240 74 234 112 382 133 520 6 36 15 95 21 131 31
201 36 638 8 812 -5 34 -13 96 -18 137 -14 111 -26 178 -44 250 -97 375 -176
580 -344 893 -47 86 -103 179 -124 203 -10 11 -18 23 -18 27 0 7 -122 176
-186 257 -107 136 -327 358 -464 469 -164 133 -350 264 -425 301 -16 8 -48 27
-70 42 -51 33 -157 86 -370 183 -43 20 -272 100 -325 114 -25 7 -74 21 -110
31 -149 42 -373 83 -535 99 -132 13 -548 12 -690 -2z m610 -468 c60 -6 156
-19 212 -30 56 -10 111 -19 121 -19 11 0 42 -6 68 -14 111 -32 201 -57 239
-67 22 -6 60 -19 85 -29 25 -10 81 -33 125 -50 242 -95 493 -245 765 -456 113
-88 333 -322 461 -489 51 -67 149 -211 149 -219 0 -3 19 -36 41 -73 169 -276
319 -706 359 -1028 5 -38 13 -99 19 -135 13 -83 14 -493 0 -585 -5 -38 -14
-104 -19 -145 -8 -65 -27 -162 -60 -300 -11 -49 -94 -297 -115 -345 -59 -135
-140 -301 -170 -350 -14 -22 -28 -47 -32 -55 -13 -29 -118 -186 -181 -270
-151 -200 -408 -456 -576 -574 -137 -97 -196 -136 -201 -136 -4 0 -25 -13 -48
-29 -37 -25 -280 -150 -332 -171 -11 -4 -36 -15 -55 -23 -76 -33 -324 -117
-347 -117 -8 0 -35 -6 -61 -14 -65 -20 -173 -41 -332 -65 -108 -17 -183 -21
-372 -21 -130 0 -259 4 -285 9 -26 5 -84 14 -128 21 -89 12 -199 34 -290 57
-109 28 -290 85 -299 94 -6 5 -18 9 -28 9 -9 0 -33 9 -53 20 -20 11 -41 20
-48 20 -19 0 -232 111 -360 186 -375 223 -681 516 -935 894 -35 53 -172 289
-172 297 0 2 -25 58 -56 124 -107 233 -189 529 -229 830 -21 158 -20 544 1
699 28 210 66 380 123 555 39 120 49 147 102 262 16 34 36 82 46 105 9 24 25
55 35 70 10 14 18 29 18 32 0 3 28 52 61 108 147 247 345 490 544 668 162 145
239 201 501 367 34 22 291 151 315 158 13 4 42 15 64 25 58 25 144 56 195 70
25 7 70 21 100 30 114 36 367 85 510 98 140 13 398 14 525 1z"/>
<path d="M5100 7543 c-170 -28 -218 -38 -295 -65 -182 -62 -332 -151 -451
-265 -157 -152 -255 -324 -303 -531 -43 -191 -22 -342 61 -422 64 -63 120 -85
213 -84 44 0 97 6 118 13 81 28 176 157 232 316 9 28 21 59 26 70 5 11 18 47
30 80 51 142 191 277 356 341 61 24 81 27 203 27 123 1 141 -2 202 -26 99 -38
156 -74 223 -142 66 -66 127 -172 145 -251 17 -71 14 -222 -5 -299 -34 -134
-125 -295 -239 -423 -66 -74 -192 -192 -262 -244 -27 -20 -87 -65 -133 -100
-85 -63 -305 -253 -416 -358 -33 -31 -102 -97 -154 -146 -179 -169 -422 -422
-477 -495 -130 -173 -174 -282 -174 -426 0 -147 41 -251 137 -351 212 -218
547 -216 751 6 90 98 132 208 132 347 0 91 -17 163 -56 243 l-27 55 24 46 c45
87 456 477 699 663 19 15 61 49 92 75 31 26 88 73 125 104 234 192 368 333
485 509 151 228 218 432 218 666 0 178 -33 311 -118 480 -63 124 -145 229
-243 313 -231 199 -505 283 -919 280 -96 -1 -186 -4 -200 -6z"/>
<path d="M5910 4433 c-55 -10 -170 -73 -212 -115 -232 -236 -149 -623 158
-734 83 -31 201 -32 291 -5 174 53 302 230 303 418 0 122 -55 250 -142 328
-60 54 -87 69 -170 96 -58 18 -163 24 -228 12z"/>
</g>
</svg>
